<?xml version="1.0" encoding="UTF-8"?>
<svg version="1.1" viewBox="0 0 2048 616" width="1280" height="1280" xmlns="http://www.w3.org/2000/svg">
<path transform="translate(139,25)" d="m0 0h340l17 3 18 6 16 8 12 8 13 11 7 7 10 13 9 16 5 11 5 16 3 19v332l-3 19-5 16-7 16-12 18-11 12-7 7-15 11-17 9-17 6-20 4-13 1h-316l-20-2-19-5-16-7-14-8-13-10-15-15-10-14-10-19-5-15-4-20v-340l4-20 7-19 8-15 9-12 9-10 8-8 15-11 19-10 15-5z" fill="#063C6A"/>
<path transform="translate(217,220)" d="m0 0h176l9 1-2 13-15 67-2 8h-65l2-12 5-24-87 1-9 2-6 5-4 10-11 47-18 80-1 13 3 3 9 2 96 1 56 1-1 9-9 39-2 4h-185l-20-4-10-5-7-8-3-10 1-16 5-28 16-71 16-68 6-23 7-14 9-10 10-6 14-4z" fill="#0470EA"/>
<path transform="translate(280,128)" d="m0 0h172l16 1 16 4 8 4 5 4 4 7 1 4v16l-4 24-18 81-16 68-6 22-7 13-8 9-10 6-13 4-18 3h-184l-1-1 1-9 17-76 1-3h64l-1 10-6 27 68-1 22-1 9-3 5-6 5-16 27-120 1-10-3-5-9-2-98-1-54-1 1-9 9-40 1-2z" fill="#FEFEFE"/>
<path transform="translate(1302,144)" d="m0 0h19l11 4 8 6 6 7 4 8 3 14 5-13 6-10 9-9 12-6 4-1h20l11 4 8 6 7 10 5 15 2 13v90h-27l-1-83-3-12-6-10-7-4-4-1h-8l-9 3-6 4-6 7-6 13-3 11-1 8-1 64h-27l-1-82-3-14-5-9-7-4-4-1h-8l-11 4-8 7-6 9-5 13-2 11-1 66h-27v-135l1-1h25l1 1v33l4-11 7-10 7-7 14-7zm-38 39 1 4z" fill="#0470EA"/>
<path transform="translate(1074,144)" d="m0 0h19l12 4 10 8 6 10 3 9 1 10 5-15 8-12 9-8 11-5 4-1h19l12 4 10 9 7 14 3 11 2 21v78l-1 1h-26l-1-78-2-12-5-12-7-6-6-2h-9l-11 4-6 5-7 11-5 15-2 20-1 55h-26l-1-75-2-16-5-12-8-6-4-1h-9l-11 4-8 7-7 12-4 12-2 14-1 61h-26l-1-1v-132l1-3h26v35l5-13 8-11 8-7 11-5z" fill="#0571EA"/>
<path transform="translate(659,334)" d="m0 0h135l-1 23-111 1-1 56-2 10 7-9 10-6 16-6 12-2h18l15 3 12 5 11 7 8 8 8 13 4 13 1 17-2 15-5 13-9 12-11 8-10 5-15 4-19 2-20-1-18-4-16-8-10-9-7-11-4-12-2-15 11-1h16l3 15 6 10 8 7 8 4 13 3h18l16-4 11-7 6-8 3-9 1-6v-13l-2-9-5-10-7-7-12-6-7-2h-20l-10 3-9 5-5 4-6 10h-36v-14l4-96z" fill="#0470EA"/>
<path transform="translate(736,90)" d="m0 0h14l18 2 15 4 16 8 11 8 9 9 9 14 6 14 1 8-24 7-2-1-5-13-6-10-10-10-10-6-16-5-7-1h-19l-15 3-11 5-9 6-7 7-7 12-5 16-1 6v27l3 14 5 12 7 10 7 7 12 7 12 4 15 2 17-1 15-4 13-7 11-10 8-14 4-10 17 4 9 3-5 16-8 14-8 10-10 9-14 8-13 5-13 3-8 1h-27l-16-3-13-5-11-6-11-9-8-9-8-13-7-19-3-19v-27l3-18 5-15 7-13 8-10 9-9 13-8 12-5 11-3z" fill="#0470EA"/>
<path transform="translate(950,387)" d="m0 0h10l14 2 12 4 12 7 8 8 6 10 4 10 3 16v25l-3 16-5 12-6 9-7 7-14 8-15 4-18 1-17-3-14-5-11-6-9-8-5-8 1 6v77h-27v-190h27v23l-1 7 6-10 9-8 10-6 13-5 8-2zm-14 24-15 5-10 7-8 9-5 10-2 7v15l3 10 7 12 10 9 12 6 7 2 16 1 13-2 11-4 9-8 6-12 2-9v-25l-4-13-5-8-7-6-9-4-9-2zm-43 11 1 2zm0 68 1 2z" fill="#0470EA"/>
<path transform="translate(1529,145)" d="m0 0h20l15 3 13 5 11 7 10 10 6 10 4 9 3 15v17l-1 1h-118l5 15 7 11 10 7 10 4 4 1h22l12-3 10-5 8-9 4-8 15 1 10 2-5 13-8 11-10 9-14 7-14 4-7 1h-25l-18-4-16-8-10-8-9-12-5-11-3-12-1-17 2-16 5-14 8-12 9-9 11-7 14-5zm1 21-12 4-9 6-7 7-6 10-3 9-1 6v12l2-2 4-7 6-4 7-1 75-1-3-13-6-11-9-8-11-5-8-2z" fill="#0470EA"/>
<path transform="translate(1933,145)" d="m0 0h20l16 3 12 5 10 6 10 9 7 11 5 12 2 10v21h-118l5 16 6 9 7 6 10 5 8 2h21l15-4 8-5 5-5 5-8 1-3 16 1 9 2-3 10-7 11-11 11-15 8-15 4-6 1h-26l-17-4-12-5-11-8-7-7-7-11-4-9-3-14v-22l4-16 6-12 8-10 11-9 13-6 15-4zm2 21-13 4-10 7-7 8-6 12-2 7-1 16 3-4 5-7 5-2 6-1 75-1-2-11-6-12-4-5-11-7-13-4z" fill="#0470EA"/>
<path transform="translate(912,145)" d="m0 0h21l16 3 15 6 13 9 7 7 8 13 5 16 1 8v14l-3 16-5 12-7 10-9 9-13 8-15 5-11 2h-26l-17-4-12-5-11-8-8-8-8-14-4-11-2-19 2-18 4-12 7-12 9-10 10-7 11-5 15-4zm3 22-12 3-10 5-7 6-7 10-4 11-1 7v10l3 14 5 9 7 8 10 6 16 4h15l13-3 11-6 6-5 6-9 4-10 1-5v-16l-3-11-4-8-8-9-10-6-11-4-5-1z" fill="#0470EA"/>
<path transform="translate(1099,387)" d="m0 0h12l14 2 15 5 12 7 11 10 7 11 4 10v3l-24 4-8-14-9-8-12-5-16-2-15 2-12 5-9 8-6 10-3 8-1 6v16l3 11 5 10 8 8 12 6 8 2h19l12-3 11-6 7-8 5-10 12 1 13 2-2 9-6 11-9 10-11 8-14 6-13 3-18 1-16-2-16-5-12-7-10-9-9-13-5-14-2-12v-15l3-16 5-12 8-11 7-7 11-7 12-5 13-3z" fill="#0470EA"/>
<path transform="translate(1781,145)" d="m0 0h19l15 3 13 5 11 7 8 7 7 10 5 12v4l-19 3h-5l-7-12-5-6-10-6-10-3-7-1h-11l-10 2-12 5-8 7-7 11-3 10-1 7 1 16 4 12 8 11 11 7 9 3 6 1h14l14-3 11-6 7-8 5-10h8l17 3-1 7-6 12-9 10-9 7-12 6-14 4-6 1h-24l-18-4-16-8-10-9-7-8-6-12-4-15v-25l4-16 7-13 11-12 11-7 11-5z" fill="#0470EA"/>
<path transform="translate(1661,146)" d="m0 0h56l1 1v24l-51 1-9 2-3 6-1 102h-27v-108l4-13 5-7 8-5 7-2z" fill="#0470EA"/>
</svg>
